<?xml version="1.0"?><svg version="1.2" baseProfile="tiny-ps" viewBox="0 0 300 300" xmlns="http://www.w3.org/2000/svg" xmlns:xlink="http://www.w3.org/1999/xlink"><title>Green Domino</title><g><g fill="#fff" transform="matrix(.1 0 0 -.1 0 300)"><path d="M0 1500V0h3000v3000H0V1500z"/></g><g fill="#e7e9e6" transform="matrix(.1 0 0 -.1 0 300)"><path d="M855 2986c-37-17-80-62-94-99l-11-28V139l14-32c16-39 61-82 99-96l28-11h1218l28 11c38 14 83 57 99 96l14 32v2722l-14 32c-16 39-61 82-99 96l-28 11h-612l-612-1-30-13zm1276-105l29-29V148l-29-29-29-29H898l-29 29-29 29v2704l29 29 29 29h1204l29-29zm-277-90l-41-19-21-34-22-35v-100l23-34 22-34 35-17 35-18h70l35 18 35 17 22 34 23 34v100l-22 35-21 34-41 19c-23 10-52 19-66 19s-43-9-66-19zm-393-421l-34-8-35-36-36-35-3-58-4-58 20-33c12-18 35-41 53-52l33-20h90l33 20c18 11 41 34 53 52l20 33-4 58-3 57-34 35c-19 19-41 37-49 39-43 11-69 13-100 6zm-459-450c-18-11-41-34-53-52l-20-33 4-58 3-58 36-35 35-35 36-9 37-8 37 8 36 9 35 35 36 35 3 58 4 58-20 33c-12 18-35 41-53 52l-33 20h-90l-33-20zm-122-420v-20h1240v40H880v-20zm134-149l-41-19-21-34-22-35v-100l23-34 22-34 35-17 35-18h70l35 18 35 17 22 34 23 34v100l-22 35-21 34-41 19c-23 10-52 19-66 19s-43-9-66-19zm840 0l-41-19-21-34-22-35v-100l23-34 22-34 35-17 35-18h70l35 18 35 17 22 34 23 34v100l-22 35-21 34-41 19c-23 10-52 19-66 19s-43-9-66-19zm-813-421l-34-8-35-36-36-35-3-58-4-58 20-33c12-18 35-41 53-52l33-20h90l33 20c18 11 41 34 53 52l20 33-4 58-3 57-34 35c-19 19-41 37-49 39-43 11-69 13-100 6zm840 0l-34-8-35-36-36-35-3-58-4-58 20-33c12-18 35-41 53-52l33-20h90l33 20c18 11 41 34 53 52l20 33-4 58-3 57-34 35c-19 19-41 37-49 39-43 11-69 13-100 6zm-879-450c-18-11-41-34-53-52l-20-33 4-58 3-58 36-35 35-35 36-9 37-8 37 8 36 9 35 35 36 35 3 58 4 58-20 33c-12 18-35 41-53 52l-33 20h-90l-33-20zm840 0c-18-11-41-34-53-52l-20-33 4-58 3-58 36-35 35-35 36-9 37-8 37 8 36 9 35 35 36 35 3 58 4 58-20 33c-12 18-35 41-53 52l-33 20h-90l-33-20z"/></g><g fill="#c7ccc7" transform="matrix(.1 0 0 -.1 0 300)"><path d="M843 2974l-43-25-25-43-25-43V137l25-43 26-43 43-26 43-25h1226l43 25 43 26 26 43 25 43v2726l-25 43-26 43-43 26-43 25H885l-42-26zm1288-93l29-29V148l-29-29-29-29H898l-29 29-29 29v2704l29 29 29 29h1204l29-29zm-249-81l-33-8-26-23c-14-13-31-36-39-51l-14-27v-76l19-35 18-35 39-22 39-23h70l39 23 39 22 18 35 19 35v82l-22 33c-42 62-98 85-166 70zm-460-450l-32-20-20-32-20-33v-92l23-34 22-34 35-17 35-18h70l35 18 35 17 22 34 23 34v92l-20 33-20 32-32 20-33 20h-90l-33-20zm-412-428l-35-17-22-34-23-34v-92l20-33 20-32 32-20 33-20h90l33 20 32 20 20 32 20 33v92l-23 34-22 34-35 17-35 18h-70l-35-18zm-125-413l-7-11 9-9 9-9 610 2 609 3v30l-612 3-612 2-6-11zm157-149l-33-8-26-23c-14-13-31-36-39-51l-14-27v-76l19-35 18-35 39-22 39-23h70l39 23 39 22 18 35 19 35v82l-22 33c-42 62-98 85-166 70zm840 0l-33-8-26-23c-14-13-31-36-39-51l-14-27v-76l19-35 18-35 39-22 39-23h70l39 23 39 22 18 35 19 35v82l-22 33c-42 62-98 85-166 70zm-880-450l-32-20-20-32-20-33v-92l23-34 22-34 35-17 35-18h70l35 18 35 17 22 34 23 34v92l-20 33-20 32-32 20-33 20h-90l-33-20zm840 0l-32-20-20-32-20-33v-92l23-34 22-34 35-17 35-18h70l35 18 35 17 22 34 23 34v92l-20 33-20 32-32 20-33 20h-90l-33-20zm-832-428l-35-17-22-34-23-34v-92l20-33 20-32 32-20 33-20h90l33 20 32 20 20 32 20 33v92l-23 34-22 34-35 17-35 18h-70l-35-18zm840 0l-35-17-22-34-23-34v-92l20-33 20-32 32-20 33-20h90l33 20 32 20 20 32 20 33v92l-23 34-22 34-35 17-35 18h-70l-35-18z"/></g><g fill="#96a995" transform="matrix(.1 0 0 -.1 0 300)"><path d="M852 2979l-44-22-26-40-27-41-3-1364-2-1365 21-44 21-44 41-27 41-27h1252l41 27 41 27 21 43 21 44v2708l-21 44-21 43-41 27-41 27-615 3-616 2-43-21zm1280-97l33-32V150l-33-32-32-33H900l-32 33-33 32v2698l25 27c14 15 34 31 45 36l20 8 587-2 588-2 32-33zm-293-105l-34-22-18-35-18-35 4-44 5-43 19-26c11-14 31-34 45-45l26-19h104l26 19c14 11 34 31 45 45l19 26 5 43 4 44-18 35-18 35-34 22-34 23h-94l-34-23zm-407-424l-33-16-21-29-21-30-5-43-4-43 23-41 23-41 41-20c23-11 52-20 65-20s42 9 65 20l41 20 23 41 23 41-4 43-5 43-21 30-22 30-34 16-34 16h-67l-33-17zm-418-433l-41-20-22-41-23-41 4-43 5-43 21-30 22-30 34-16 34-16h64l34 16 34 16 22 30 21 30 5 43 4 43-23 41-23 41-41 20c-52 25-80 25-131 0zm-124-420v-10h1220v20H890v-10zm109-163l-34-22-18-35-18-35 4-44 5-43 19-26c11-14 31-34 45-45l26-19h104l26 19c14 11 34 31 45 45l19 26 5 43 4 44-18 35-18 35-34 22-34 23h-94l-34-23zm840 0l-34-22-18-35-18-35 4-44 5-43 19-26c11-14 31-34 45-45l26-19h104l26 19c14 11 34 31 45 45l19 26 5 43 4 44-18 35-18 35-34 22-34 23h-94l-34-23zm-827-424l-33-16-21-29-21-30-5-43-4-43 23-41 23-41 41-20c52-25 78-25 130 0l41 20 23 41 23 41-4 43-5 43-21 30-22 30-34 16-34 16h-67l-33-17zm840 0l-33-16-21-29-21-30-5-43-4-43 23-41 23-41 41-20c52-25 78-25 130 0l41 20 23 41 23 41-4 43-5 43-21 30-22 30-34 16-34 16h-67l-33-17zm-838-433l-41-20-22-41-23-41 4-43 5-43 21-30 22-30 34-16 34-16h64l34 16 34 16 22 30 21 30 5 43 4 43-23 41-23 41-41 20c-52 25-80 25-131 0zm840 0l-41-20-22-41-23-41 4-43 5-43 21-30 22-30 34-16 34-16h64l34 16 34 16 22 30 21 30 5 43 4 43-23 41-23 41-41 20c-52 25-80 25-131 0z"/></g><g fill="#51834d" transform="matrix(.1 0 0 -.1 0 300)"><path d="M865 2981c-48-22-79-54-100-103l-15-37V159l15-37c21-49 52-81 100-103l40-19h1190l40 19c48 22 79 54 100 103l15 37v2682l-15 37c-21 49-52 81-100 103l-40 19H905l-40-19zm1245-76l30-15 15-30 15-29V169l-15-29-15-30-30-15-29-15H919l-29 15-30 15-15 30-15 29v2662l15 29 15 29 28 15 27 15 583 1h583l29-15zm-260-124l-35-18-23-44-23-44 6-39 6-39 20-29c11-15 33-35 49-43l29-15h82l29 15c16 8 38 28 49 43l20 29 6 39 6 39-23 44-23 44-35 18-35 19h-70l-35-19zm-400-422c-14-6-37-22-52-36l-28-26-11-34-11-34 7-35 6-34 30-35 31-35 39-10 39-11 39 11 39 10 31 35 30 35 6 34 7 35-11 34-11 34-28 26c-46 44-100 57-152 36zm-414-429c-16-5-42-21-57-36l-29-27-11-34-11-34 7-35 6-34 30-35 30-34 35-11 35-12 35 7 34 6 35 30 34 30 11 35 12 35-7 35-6 34-30 35-31 35-36 10c-42 11-47 11-86 0zm-146-430v-10h1220v20H890v-10zm120-159l-35-18-23-44-23-44 6-39 6-39 20-29c11-15 33-35 49-43l29-15h82l29 15c16 8 38 28 49 43l20 29 6 39 6 39-23 44-23 44-35 18-35 19h-70l-35-19zm840 0l-35-18-23-44-23-44 6-39 6-39 20-29c11-15 33-35 49-43l29-15h82l29 15c16 8 38 28 49 43l20 29 6 39 6 39-23 44-23 44-35 18-35 19h-70l-35-19zm-820-422c-14-6-37-22-52-36l-28-26-11-34-11-34 7-35 6-34 30-35 31-35 39-10 39-11 39 11 39 10 31 35 30 35 6 34 7 35-11 34-11 34-28 26c-46 44-100 57-152 36zm840 0c-14-6-37-22-52-36l-28-26-11-34-11-34 7-35 6-34 30-35 31-35 39-10 39-11 39 11 39 10 31 35 30 35 6 34 7 35-11 34-11 34-28 26c-46 44-100 57-152 36zm-834-429c-16-5-42-21-57-36l-29-27-11-34-11-34 7-35 6-34 30-35 30-34 35-11 35-12 35 7 34 6 35 30 34 30 11 35 12 35-7 35-6 34-30 35-31 35-36 10c-42 11-47 11-86 0zm840 0c-16-5-42-21-57-36l-29-27-11-34-11-34 7-35 6-34 30-35 30-34 35-11 35-12 35 7 34 6 35 30 34 30 11 35 12 35-7 35-6 34-30 35-31 35-36 10c-42 11-47 11-86 0z"/></g><g fill="#1c8307" transform="matrix(.1 0 0 -.1 0 300)"><path d="M866 2980c-54-27-71-45-95-96l-21-44V162l14-33c8-19 23-46 35-60l21-27 45-21 45-21h1180l45 21 45 21 21 27c12 14 27 41 35 60l14 33v2676l-14 33c-8 19-23 46-35 60l-21 27-45 21-45 21h-592l-593-1-39-19zm1270-94l34-34V148l-34-34-34-34H898l-34 34-34 34v2704l34 34 34 34h1204l34-34zm-260-96c-35-11-63-36-82-72l-14-27v-83l16-26c9-15 28-36 42-47l27-20h110l27 20c14 11 33 32 42 47l16 26v87l-20 32c-24 39-54 60-100 67l-35 5-29-9zm-453-450l-32-19-16-30-15-30v-86l20-32 19-32 30-16 30-15h82l30 15 30 16 19 32 20 32v86l-15 30-16 30-32 19-32 20h-90l-32-20zm-420-430l-32-19-16-30-15-30v-86l20-32 19-32 30-16 30-15h82l30 15 30 16 19 32 20 32v86l-15 30-16 30-32 19-32 20h-90l-32-20zm-113-410v-10h1220v20H890v-10zm146-150c-35-11-63-36-82-72l-14-27v-83l16-26c9-15 28-36 42-47l27-20h110l27 20c14 11 33 32 42 47l16 26v87l-20 32c-24 39-54 60-100 67l-35 5-29-9zm840 0c-35-11-63-36-82-72l-14-27v-83l16-26c9-15 28-36 42-47l27-20h110l27 20c14 11 33 32 42 47l16 26v87l-20 32c-24 39-54 60-100 67l-35 5-29-9zm-873-450l-32-19-16-30-15-30v-86l20-32 19-32 30-16 30-15h82l30 15 30 16 19 32 20 32v86l-15 30-16 30-32 19-32 20h-90l-32-20zm840 0l-32-19-16-30-15-30v-86l20-32 19-32 30-16 30-15h82l30 15 30 16 19 32 20 32v86l-15 30-16 30-32 19-32 20h-90l-32-20zm-840-430l-32-19-16-30-15-30v-86l20-32 19-32 30-16 30-15h82l30 15 30 16 19 32 20 32v86l-15 30-16 30-32 19-32 20h-90l-32-20zm840 0l-32-19-16-30-15-30v-86l20-32 19-32 30-16 30-15h82l30 15 30 16 19 32 20 32v86l-15 30-16 30-32 19-32 20h-90l-32-20z"/></g></g></svg>
